<?xml version="1.0" encoding="utf-8"?>
<!-- Generator: Adobe Illustrator 18.0.0, SVG Export Plug-In . SVG Version: 6.00 Build 0)  -->
<!DOCTYPE svg PUBLIC "-//W3C//DTD SVG 1.1//EN" "http://www.w3.org/Graphics/SVG/1.1/DTD/svg11.dtd">
<svg version="1.1" id="Layer_1" xmlns="http://www.w3.org/2000/svg" xmlns:xlink="http://www.w3.org/1999/xlink" x="0px" y="0px"
	 viewBox="0 0 37.5 37.4" enable-background="new 0 0 37.5 37.4" xml:space="preserve">
<path fill="#66e1a2" d="M34.3,15.5C34.2,15.2,34,15,33.7,15l-9.6-1.1l-4.3-8.5C19.7,5.1,19.4,5,19.1,5c-0.3,0-0.6,0.2-0.7,0.4
	l-4.3,8.5l-9.6,1.4c-0.3,0-0.5,0.2-0.6,0.5c-0.1,0.3,0,0.6,0.2,0.8l6.8,6.8l-1.2,9.4c0,0.3,0.1,0.6,0.3,0.7c0.2,0.2,0.5,0.2,0.8,0
	l8.4-4.7l8.3,4.6c0.3,0.1,0.6,0.1,0.8,0c0.2-0.2,0.4-0.4,0.3-0.7l-1.3-9.5l6.6-7C34.4,16.1,34.4,15.8,34.3,15.5z"/>
</svg>
