<?xml version="1.0" encoding="UTF-8" standalone="no"?> <svg height="649pt" viewBox="-20 -29 649.34821 649" width="649pt" xmlns="http://www.w3.org/2000/svg"><path d="m451.492188 276.03125c-21.933594-.023438-43.617188 4.566406-63.65625 13.46875v-145.171875c0-6.203125-5.03125-11.226563-11.230469-11.226563h-14.28125v-34.269531c0-6.199219-5.027344-11.226562-11.226563-11.226562h-25.085937v-13.449219c0-6.203125-5.027344-11.226562-11.226563-11.226562-6.203125 0-11.226562 5.023437-11.226562 11.226562v13.449219h-25.769532c-6.195312 0-11.226562 5.027343-11.226562 11.226562v34.269531h-14.992188v-44.488281c0-6.203125-5.027343-11.226562-11.226562-11.226562h-28.859375v-34.890625c0-6.199219-5.027344-11.226563-11.226563-11.226563h-64.542968v-20.535156c0-6.203125-5.023438-11.226563-11.226563-11.226563-6.199219 0-11.230469 5.023438-11.230469 11.226563v20.535156h-61.867187c-6.203125 0-11.226563 5.027344-11.226563 11.226563v34.890625h-28.855468c-6.195313 0-11.2265628 5.023437-11.2265628 11.226562v412.125c0 6.199219 5.0312498 11.226563 11.2265628 11.226563h303.90625c38.152344 66.148437 118.292968 95.351562 190.058594 69.253906 71.761718-26.097656 114.425781-99.957031 101.171874-175.164062-13.25-75.203126-78.589843-130.027344-154.953124-130.023438zm-388.875-222.308594h126.414062v23.664063h-126.414062zm97.78125 435.789063h-24.683594v-68.746094h24.683594zm-47.140626 0h-22.011718v-68.746094h22.011718zm115.851563 0h-46.257813v-79.972657c0-6.203124-5.023437-11.226562-11.226562-11.226562h-91.609375c-6.195313 0-11.226563 5.023438-11.226563 11.226562v79.972657h-46.25v-389.671875h206.578126zm59.910156-379.453125h50.851563v23.042968h-50.851563zm-37.449219 379.453125v-333.957031h113.816407v146.203124c-8.121094 5.324219-15.730469 11.390626-22.742188 18.109376-1.097656-.347657-2.246093-.53125-3.402343-.53125h-60.964844c-6.199219 0-11.226563 5.03125-11.226563 11.230468 0 6.203125 5.027344 11.226563 11.226563 11.226563h45.34375c-6.558594 9.136719-12.121094 18.945312-16.589844 29.265625h-28.753906c-6.199219 0-11.226563 5.027344-11.226563 11.226562 0 6.199219 5.027344 11.226563 11.226563 11.226563h20.992187c-2.855469 10.90625-4.527343 22.082031-4.980469 33.351562h-16.011718c-6.199219 0-11.226563 5.023438-11.226563 11.226563 0 6.195312 5.027344 11.226562 11.226563 11.226562h16.671875c1.386719 13.761719 4.605469 27.277344 9.554687 40.195313zm199.925782 78.757812c-74.5.007813-134.898438-60.386719-134.898438-134.882812-.003906-74.5 60.390625-134.898438 134.890625-134.898438s134.894531 60.390625 134.894531 134.894531c-.082031 74.460938-60.429687 134.804688-134.890624 134.886719zm0 0"/><path d="m57.796875 217.945312h136.097656c6.199219 0 11.226563-5.027343 11.226563-11.230468 0-6.195313-5.027344-11.226563-11.226563-11.226563h-136.097656c-6.199219 0-11.226563 5.03125-11.226563 11.226563 0 6.203125 5.027344 11.230468 11.226563 11.230468zm0 0"/><path d="m57.796875 280.550781h136.097656c6.199219 0 11.226563-5.023437 11.226563-11.226562 0-6.199219-5.027344-11.230469-11.226563-11.230469h-136.097656c-6.199219 0-11.226563 5.03125-11.226563 11.230469 0 6.203125 5.027344 11.226562 11.226563 11.226562zm0 0"/><path d="m57.796875 343.15625h136.097656c6.199219 0 11.226563-5.023438 11.226563-11.226562 0-6.199219-5.027344-11.226563-11.226563-11.226563h-136.097656c-6.199219 0-11.226563 5.027344-11.226563 11.226563 0 6.203124 5.027344 11.226562 11.226563 11.226562zm0 0"/><path d="m57.796875 155.335938h136.097656c6.199219 0 11.226563-5.023438 11.226563-11.226563 0-6.199219-5.027344-11.226563-11.226563-11.226563h-136.097656c-6.199219 0-11.226563 5.027344-11.226563 11.226563 0 6.203125 5.027344 11.226563 11.226563 11.226563zm0 0"/><path d="m278.277344 285.996094h58.527344c6.199218 0 11.226562-5.027344 11.226562-11.226563 0-6.203125-5.027344-11.226562-11.226562-11.226562h-58.527344c-6.199219 0-11.226563 5.023437-11.226563 11.226562 0 6.199219 5.027344 11.226563 11.226563 11.226563zm0 0"/><path d="m278.277344 231.554688h58.527344c6.199218 0 11.226562-5.023438 11.226562-11.226563 0-6.199219-5.027344-11.230469-11.226562-11.230469h-58.527344c-6.199219 0-11.226563 5.03125-11.226563 11.230469 0 6.203125 5.027344 11.226563 11.226563 11.226563zm0 0"/><path d="m502.804688 468.8125c24.753906-33.085938 19.738281-79.675781-11.492188-106.734375-31.234375-27.054687-78.0625-25.378906-107.277344 3.839844-29.21875 29.214843-30.894531 76.042969-3.839844 107.277343 27.058594 31.230469 73.644532 36.246094 106.734376 11.492188l35.773437 35.78125c4.386719 4.378906 11.496094 4.386719 15.878906 0 4.382813-4.386719 4.382813-11.496094.003907-15.878906zm-119.230469-47.117188c-.027344-25.324218 16.871093-47.542968 41.285156-54.28125 24.410156-6.734374 50.316406 3.683594 63.273437 25.441407 12.957032 21.761719 9.769532 49.496093-7.78125 67.75-.601562.488281-1.152343 1.039062-1.640624 1.636719-16.246094 15.625-40.246094 20.027343-60.980469 11.195312-20.730469-8.835938-34.179688-29.199219-34.164063-51.738281zm0 0"/></svg>