<?xml version="1.0" encoding="iso-8859-1"?>
<!-- Generator: Adobe Illustrator 19.0.0, SVG Export Plug-In . SVG Version: 6.00 Build 0)  -->
<svg version="1.1" id="Capa_1" xmlns="http://www.w3.org/2000/svg" xmlns:xlink="http://www.w3.org/1999/xlink" x="0px" y="0px"
	 viewBox="0 0 512 512" style="enable-background:new 0 0 512 512;" xml:space="preserve">
<g>
	<g>
		<path d="M426.313,431.884c8.686-5.322,16.95-11.248,24.699-17.774C490.341,380.992,512,336.738,512,289.5
			c0-34.677-11.83-68.185-34.212-96.901c-20.21-25.929-47.98-46.685-80.6-60.319c-10.277-23.593-26.547-45.178-48.175-63.391
			C310.426,36.395,259.281,18.5,205,18.5S99.574,36.395,60.987,68.889C21.659,102.008,0,146.262,0,193.5
			c0,47.238,21.659,91.492,60.987,124.611c7.608,6.407,15.711,12.236,24.223,17.483C70.218,357.805,52.793,378.24,33.304,396.5
			c33.125-2.74,64.961-10.023,94.888-21.216C163.925,429.719,231.703,464.5,307,464.5c16.201,0,32.118-1.606,47.51-4.707
			c38.12,18.321,80.007,30.053,124.186,33.707C459,475.045,441.412,454.37,426.313,431.884z M30,193.5c0-79.953,78.505-145,175-145
			s175,65.047,175,145s-78.505,145-175,145S30,273.453,30,193.5z M307,434.5c-62.918,0-119.475-27.502-150.492-70.904
			c15.696,3.232,31.947,4.904,48.492,4.904c54.281,0,105.426-17.895,144.013-50.389C388.341,284.992,410,240.738,410,193.5
			c0-7.463-0.544-14.85-1.609-22.132C453.909,198.304,482,242.278,482,289.5C482,369.453,403.495,434.5,307,434.5z"/>
	</g>
</g>
<g>
</g>
<g>
</g>
<g>
</g>
<g>
</g>
<g>
</g>
<g>
</g>
<g>
</g>
<g>
</g>
<g>
</g>
<g>
</g>
<g>
</g>
<g>
</g>
<g>
</g>
<g>
</g>
<g>
</g>
</svg>
