<?xml version="1.0" encoding="UTF-8" standalone="no"?> <svg id="Layer_1" data-name="Layer 1" xmlns="http://www.w3.org/2000/svg" viewBox="0 0 120 120"><defs><style>.cls-1{fill:#ef2e2e;}.cls-2{fill:#c92323;}.cls-3{fill:#161313;}.cls-4{fill:#f7c537;}.cls-5{fill:#1e0a09;}.cls-6{fill:#fff;}.cls-7{fill:#f7dada;}</style></defs><title>chinese new year icon 7</title><rect class="cls-1" x="35.9" y="96.96" width="38.71" height="7.35" rx="2.58"/><path class="cls-2" d="M72,97H63.78v7.35H72a2.59,2.59,0,0,0,2.58-2.58V99.54A2.59,2.59,0,0,0,72,97Z"/><path class="cls-3" d="M103.53,9.4c.32.73.48,1.1.77,1.84a1.11,1.11,0,0,1-.7,1.38L29.34,43c-.6.24-1.19.17-1.32-.16-.19-.48-.29-.71-.5-1.18s.22-.8.81-1.05L102.05,8.94A1.1,1.1,0,0,1,103.53,9.4Z"/><path class="cls-3" d="M107.3,20.26c.25.76.37,1.14.59,1.9a1.11,1.11,0,0,1-.83,1.31L30.22,46.53c-.61.18-1.2,0-1.3-.29-.14-.49-.22-.74-.37-1.22s.29-.78.9-1l76.42-24.4A1.12,1.12,0,0,1,107.3,20.26Z"/><path class="cls-4" d="M38.21,52.15V41.25l-3,1V53.4A18.42,18.42,0,0,1,38.21,52.15Z"/><path class="cls-4" d="M43.47,51.35c.52,0,1,0,1.55.07V39.07l-3,1V51.42C42.5,51.38,43,51.35,43.47,51.35Z"/><path class="cls-4" d="M52.29,53.73V30.29l-3,1.29V52.35A17.74,17.74,0,0,1,52.29,53.73Z"/><path class="cls-4" d="M58.47,48.92V27.64l-3,1.29V49.64A16.82,16.82,0,0,1,58.47,48.92Z"/><path class="cls-4" d="M64.63,49.05V32.78l-3,1V48.73A18.61,18.61,0,0,1,64.63,49.05Z"/><path class="cls-4" d="M61.11,48.7A17.64,17.64,0,0,0,43.47,66.34H78.75A17.64,17.64,0,0,0,61.11,48.7Z"/><path class="cls-5" d="M79.75,67.34H42.47v-1a18.64,18.64,0,0,1,37.28,0Zm-35.25-2H77.72a16.64,16.64,0,0,0-33.22,0Z"/><path class="cls-4" d="M61.11,53.48A12.86,12.86,0,0,0,48.25,66.34H74A12.86,12.86,0,0,0,61.11,53.48Z"/><path class="cls-5" d="M75,67.34H47.25v-1a13.86,13.86,0,1,1,27.72,0Zm-25.68-2H72.93a11.86,11.86,0,0,0-23.64,0Z"/><path class="cls-6" d="M66.53,66.38a8,8,0,0,0-8,8H74.56A8,8,0,0,0,66.53,66.38Z"/><path class="cls-5" d="M65.62,67.44a6.86,6.86,0,0,1,1.81,0h4.84a9,9,0,0,0-11.49,0Z"/><path class="cls-5" d="M24.89,69.91a3.16,3.16,0,0,1,2-2.22A16.63,16.63,0,0,1,60,67.44h2A18.63,18.63,0,0,0,24.83,69v1h.05S24.89,69.94,24.89,69.91Z"/><path class="cls-5" d="M51.42,67.44a16.63,16.63,0,0,1,30.21,0h.27a3.49,3.49,0,0,1,2.18.75,18.62,18.62,0,0,0-34.83-.75Z"/><path class="cls-4" d="M81.9,67.44a3.74,3.74,0,0,1,.89.12,17.65,17.65,0,0,0-32.47-.12Z"/><path class="cls-4" d="M77.32,67.44a12.85,12.85,0,0,0-21.59,0Z"/><path class="cls-5" d="M51.42,67.44a16.63,16.63,0,0,1,30.21,0h.27a3.49,3.49,0,0,1,2.18.75,18.62,18.62,0,0,0-34.83-.75Z"/><path class="cls-5" d="M57,67.44a11.84,11.84,0,0,1,19.16,0h2.37a13.83,13.83,0,0,0-23.91,0Z"/><path class="cls-4" d="M28.18,67.44H61a17.62,17.62,0,0,0-35.17.87A3.48,3.48,0,0,1,28.18,67.44Z"/><path class="cls-4" d="M56.23,67.44a12.85,12.85,0,0,0-25.52,0Z"/><path class="cls-4" d="M51.35,67.44a8,8,0,0,0-15.77,0Z"/><path class="cls-5" d="M31.72,67.44a11.84,11.84,0,0,1,23.49,0h2a13.86,13.86,0,0,0-27.54,0Z"/><path class="cls-5" d="M36.61,67.44a7,7,0,0,1,13.72,0h2a9,9,0,0,0-17.79,0Z"/><path class="cls-5" d="M24.89,69.91a3.16,3.16,0,0,1,2-2.22A16.63,16.63,0,0,1,60,67.44h2A18.63,18.63,0,0,0,24.83,69v1h.05S24.89,69.94,24.89,69.91Z"/><path class="cls-1" d="M36.7,97H73.38a3.44,3.44,0,0,0,2.18-.74A26.87,26.87,0,0,0,85.78,75.41a25.6,25.6,0,0,0-.6-5.5,3.29,3.29,0,0,0-3.28-2.47H28.18a3.3,3.3,0,0,0-3.29,2.47,25.6,25.6,0,0,0-.6,5.5A26.87,26.87,0,0,0,34.51,96.22,3.47,3.47,0,0,0,36.7,97Z"/><path class="cls-2" d="M85.18,69.91a3.29,3.29,0,0,0-3.28-2.47H69.33a3.29,3.29,0,0,1,3.28,2.47,25,25,0,0,1,.6,5.5A26.84,26.84,0,0,1,63,96.22a3.42,3.42,0,0,1-2.18.74H73.38a3.44,3.44,0,0,0,2.18-.74A26.87,26.87,0,0,0,85.78,75.41,25.6,25.6,0,0,0,85.18,69.91Z"/><path class="cls-5" d="M86.65,69.59a4.83,4.83,0,0,0-4.75-3.65H28.18a4.81,4.81,0,0,0-4.75,3.65,27.17,27.17,0,0,0-.64,5.82,28.42,28.42,0,0,0,10.78,22,4.35,4.35,0,0,0,1.12.66,4.17,4.17,0,0,0-.29,1.5v2.19a4.08,4.08,0,0,0,4.08,4.08H72a4.08,4.08,0,0,0,4.08-4.08V99.54a4,4,0,0,0-.36-1.66,4.34,4.34,0,0,0,.76-.5,28.41,28.41,0,0,0,10.77-22A27.09,27.09,0,0,0,86.65,69.59ZM73.11,101.73A1.08,1.08,0,0,1,72,102.81H38.48a1.08,1.08,0,0,1-1.08-1.08V99.54a1.08,1.08,0,0,1,1.08-1.08H72a1.08,1.08,0,0,1,1.08,1.08Zm1.5-6.67a2,2,0,0,1-1.23.4H36.7a2,2,0,0,1-1.24-.4,25.47,25.47,0,0,1-9.67-19.65,23.76,23.76,0,0,1,.57-5.18,1.81,1.81,0,0,1,1.82-1.29H81.9a1.81,1.81,0,0,1,1.82,1.29,24.38,24.38,0,0,1,.56,5.18A25.44,25.44,0,0,1,74.61,95.06Z"/><ellipse class="cls-7" cx="31.24" cy="75.58" rx="2.66" ry="4.41" transform="translate(-9.27 4.54) rotate(-7.24)"/><ellipse class="cls-7" cx="33.16" cy="84.47" rx="1.89" ry="2.3" transform="translate(-21.93 12.36) rotate(-15.95)"/></svg>