<?xml version="1.0" encoding="UTF-8" standalone="no"?> <svg id="Layer_1" data-name="Layer 1" xmlns="http://www.w3.org/2000/svg" viewBox="0 0 120 120"><defs><style>.cls-1{fill:#ef2e2e;}.cls-2{fill:#c92323;}.cls-3{fill:#f4cc22;}.cls-4{fill:#fff;}.cls-5{fill:#1e0a09;}</style></defs><title>chinese new year icon 18</title><path class="cls-1" d="M43.39,72.33a17.72,17.72,0,0,1,35.44,0h24.7a42.42,42.42,0,0,0-84.84,0Z"/><path class="cls-2" d="M68,30.77S61.11,54.89,32,72.33H43.39a17.72,17.72,0,0,1,35.44,0h24.7A42.42,42.42,0,0,0,68,30.77Z"/><path class="cls-2" d="M57.81,90.72a2.1,2.1,0,0,1-1.69-1.47,2.37,2.37,0,0,0-.41.88c-.93,4-1.39,5.93-2.31,9.87l6,.87c.24-4,.35-6.07.59-10.11a2.44,2.44,0,0,0-.15-1A2.08,2.08,0,0,1,57.81,90.72Z"/><path class="cls-2" d="M67.44,85.16a2.49,2.49,0,0,0-.52-.82,2.08,2.08,0,0,1-3.63,1,2.48,2.48,0,0,0,0,1c.77,4,1.15,6,1.91,10L71,94.65Z"/><circle class="cls-3" cx="58.11" cy="88.65" r="2.09"/><circle class="cls-3" cx="60.96" cy="72.34" r="3.08"/><circle class="cls-4" cx="64.86" cy="84.01" r="2.09"/><circle class="cls-3" cx="64.86" cy="84.01" r="2.09"/><path class="cls-5" d="M105,72.32a43.92,43.92,0,0,0-87.84,0v1.51H44.86v-.42H57A4.1,4.1,0,0,0,59.22,76l-1.39,9.58a3,3,0,0,0-2.76,3.48,3.44,3.44,0,0,0-.34.84l-2.55,10.93L60.34,102,61,90.82a3,3,0,0,0-.09-.9,3.27,3.27,0,0,0,.26-.82,3.09,3.09,0,0,0-1.92-3.31l1.37-9.41c.11,0,.22,0,.34,0A3.92,3.92,0,0,0,62,76.25l1.41,5a3.1,3.1,0,0,0-1.56,3.58,3.14,3.14,0,0,0,.36.79,3.42,3.42,0,0,0,0,.9l2.11,11,7.94-2.24-4-10.5a3.24,3.24,0,0,0-.45-.79,2.78,2.78,0,0,0-.1-.85h0a3.09,3.09,0,0,0-1.46-1.86,3.16,3.16,0,0,0-1.53-.38l-1.49-5.31a4.09,4.09,0,0,0,1.53-2.21H77.35v.42H105ZM58.47,99.73l-3.85-.56,1.85-7.91a3.17,3.17,0,0,0,1.2.45,3.4,3.4,0,0,0,.45,0,3.33,3.33,0,0,0,.83-.12Zm.29-10.21a1.09,1.09,0,0,1-.8.21A1.08,1.08,0,0,1,57,88.5a1.09,1.09,0,0,1,1.07-.93h.16a1.1,1.1,0,0,1,.92,1.23A1,1,0,0,1,58.76,89.52Zm8.07-3.14L69.69,94,66,95l-1.53-8a3.12,3.12,0,0,0,.44,0A3.46,3.46,0,0,0,65.7,87,3.15,3.15,0,0,0,66.83,86.38ZM64.57,83a1,1,0,0,1,.3,0,1.07,1.07,0,0,1,.52.14,1.06,1.06,0,0,1,.52.65,1.09,1.09,0,0,1-.75,1.34,1.05,1.05,0,0,1-.83-.1,1.09,1.09,0,0,1,.24-2ZM96.72,52.54l-19.33,9.9a19.59,19.59,0,0,0-4-4.53l13.5-17A41.28,41.28,0,0,1,96.72,52.54ZM50.78,60.18l7,8.81-10.2-5.22A16.1,16.1,0,0,1,50.78,60.18ZM56.89,57l2.29,10.57L52.38,59A16.2,16.2,0,0,1,56.89,57Zm-6.37-.34L37,39.62a40.73,40.73,0,0,1,14.67-6.8L56.26,54A19.24,19.24,0,0,0,50.52,56.63Zm19.42,2.42-6.7,8.44L65.51,57A15.92,15.92,0,0,1,69.94,59.05Zm-3.8-5,4.59-21.22a40.85,40.85,0,0,1,14.59,6.83l-13.51,17A19.28,19.28,0,0,0,66.14,54.08ZM61.2,67.44,58.85,56.57a16.8,16.8,0,0,1,2.26-.18,15.16,15.16,0,0,1,2.44.21Zm10.34-7.18a16.47,16.47,0,0,1,3.14,3.57L64.6,69ZM68.78,32.44,64.19,53.66a17.61,17.61,0,0,0-6,0l-4.6-21.22a40.54,40.54,0,0,1,15.16,0Zm-33.36,8.4,13.49,17a19.43,19.43,0,0,0-4,4.55l-19.35-9.9A41.3,41.3,0,0,1,35.42,40.84Zm-15.19,30a40.55,40.55,0,0,1,4.36-16.59l19.3,9.89A18.93,18.93,0,0,0,42,70.83ZM57,71.41H45a16.18,16.18,0,0,1,1.62-5.91l10.58,5.42A4,4,0,0,0,57,71.41Zm4,3A2.08,2.08,0,1,1,63,72.34,2.08,2.08,0,0,1,61,74.41Zm4-3c0-.1-.06-.19-.09-.29l10.85-5.56a16.09,16.09,0,0,1,1.59,5.85Zm15.33-.58a18.9,18.9,0,0,0-1.89-6.64L97.67,54.3A40.59,40.59,0,0,1,102,70.83Z"/></svg>