<?xml version="1.0" encoding="UTF-8" standalone="no"?> <svg id="Layer_1" data-name="Layer 1" xmlns="http://www.w3.org/2000/svg" viewBox="0 0 128 128"><defs><style>.cls-1{fill:#2b77c0;}.cls-2{fill:#3b4551;}</style></defs><title>a</title><path class="cls-1" d="M59.94373,58.82933a1.49759,1.49759,0,0,0,1.49756-1.49756V40.216a1.49756,1.49756,0,1,0-2.99512,0v8.30566H54.45394a.75627.75627,0,0,1-.8556-.85546V40.216a1.49749,1.49749,0,1,0-2.995,0v7.45021a3.72857,3.72857,0,0,0,3.85057,3.85043h3.99223v5.81518A1.49759,1.49759,0,0,0,59.94373,58.82933Z"/><path class="cls-1" d="M35.93077,56.27293a1.49744,1.49744,0,0,0,1.05884,2.5564H47.31843a1.49756,1.49756,0,0,0,0-2.99512H40.60457l6.36737-6.36708a6.29646,6.29646,0,1,0-8.90454-8.90454l-1.06462,1.06462a1.49728,1.49728,0,0,0,2.11754,2.1174L40.18493,42.68a3.30181,3.30181,0,1,1,4.66946,4.66946Z"/><path class="cls-1" d="M76.42308,59.265a1.483,1.483,0,0,0,.56809.11347A1.499,1.499,0,0,0,78.3767,58.449l7.48316-18.2134a1.49733,1.49733,0,0,0-1.385-2.06622H73.55749a1.49741,1.49741,0,0,0,0,2.99483h8.68294l-6.63334,16.147A1.49649,1.49649,0,0,0,76.42308,59.265Z"/><path class="cls-1" d="M67.29825,36.62442l-4.04789,23.7983a1.49736,1.49736,0,0,0,1.22551,1.72711,1.48162,1.48162,0,0,0,.25224.0211,1.49763,1.49763,0,0,0,1.47472-1.24647l4.048-23.79845a1.49746,1.49746,0,0,0-2.95262-.5016Z"/><path class="cls-2" d="M78.38422,112.88119c-3.93138,5.37617-11.62848,6.51293-17.40723,6.51293h-.45c-5.77875,0-13.49956-1.113-17.40737-6.46552C38.33568,106.321,34.949,98.07908,32.43854,86.99527l-1.37368-6.15762-6.27615.63935a1.52994,1.52994,0,0,1-1.68143-1.20773L21.402,72.02736l8.05241-1.65787-.71047-6.44181c-.52111-4.8078-.9-9.52077-1.11319-13.99682-.28419-6.63146.54467-11.01283,2.72365-14.21,6.32342-9.37867,20.13088-12.10232,30.03051-11.65233h.68677c9.89964-.4737,23.70709,2.27366,30.05422,11.65233,2.15527,3.1972,2.98413,7.57857,2.69994,14.21-.18951,4.49976-.56838,9.07063-1.11319,13.99682l-.71047,6.44181,8.07612,1.65787L98.373,80.26927A1.55428,1.55428,0,0,1,96.66787,81.477l-6.27615-.63935L89.018,86.99527c-.33146,1.51577-.68677,2.96042-1.06564,4.35781h7.31808c.26048-.94739.4737-1.87108.68677-2.81833a8.65353,8.65353,0,0,0,9.37867-6.82083l2.06044-10.06544a5.24318,5.24318,0,0,0-4.07347-6.205l-3.5288-.73418c.521-4.8078.92354-9.63915,1.13676-14.47066.28419-6.4181-.23692-13.02586-3.93152-18.49672-7.67339-11.3917-23.186-15.41776-36.25926-14.77841-13.07313-.63935-28.58586,3.38671-36.283,14.77841-3.6946,5.47086-4.19186,12.07861-3.90767,18.49672q.3196,7.24725,1.13676,14.47066l-3.5288.73418a5.27684,5.27684,0,0,0-4.09718,6.205l2.08415,10.06544a8.62361,8.62361,0,0,0,9.37853,6.82083c2.27366,10.18383,5.73148,20.10717,11.84169,28.56216,4.4999,6.15762,12.5286,9.40223,23.16242,9.40223h.42628c10.63382,0,18.66252-3.24461,23.16228-9.40223a60.09258,60.09258,0,0,0,6.46566-11.5338H82.76573A52.4666,52.4666,0,0,1,78.38422,112.88119Z"/><path class="cls-1" d="M116.08162,55.24155c.09251-1.46171.17115-2.91185.24053-4.33424.30529-7.30623-.04163-18.1349-6.54762-27.784C98.43935,6.309,77.05492.9733,60.74021,1.54225,44.3885.96636,23.04108,6.31131,11.71052,23.11865,5.16983,32.78859,4.853,43.61727,5.1814,50.88649q.04618,1.28492.11622,2.58025a3.55255,3.55255,0,1,0,7.09735-.3316q-.06982-1.26541-.1155-2.53544c-.28448-6.29552-.04394-15.57923,5.31951-23.503,9.737-14.44363,28.62359-19.03,43.00477-18.44945l.13646.00463.13646-.00463c14.40893-.58052,33.27007,4.00582,43.00708,18.44945,5.3357,7.91219,5.60168,17.20977,5.34033,23.49142-.09483,1.94278-.21047,3.95725-.34924,5.99254l-.13414,1.93353,1.55653,1.15873a13.65565,13.65565,0,0,1,5.22237,13.67577L113.4635,83.354a16.82916,16.82916,0,0,1-8.6523,11.55259H70.11657a10.057,10.057,0,1,0-.00072,7.105h36.32127l.71929-.33767a23.87986,23.87986,0,0,0,13.26408-16.87672L122.47891,74.785A20.78692,20.78692,0,0,0,116.08162,55.24155Z"/></svg>