<?xml version="1.0" encoding="UTF-8" standalone="no"?> <svg xmlns="http://www.w3.org/2000/svg" viewBox="0 0 64 64"><defs><style>.cls-1{fill:#ff927d;}.cls-1,.cls-10,.cls-3,.cls-5,.cls-6,.cls-8,.cls-9{stroke:#54596e;}.cls-1,.cls-10,.cls-3,.cls-5,.cls-6,.cls-7,.cls-8,.cls-9{stroke-linecap:round;stroke-linejoin:round;stroke-width:2px;}.cls-2{fill:#54596e;opacity:0.1;}.cls-3{fill:#fff;}.cls-4{fill:#999;}.cls-5,.cls-7{fill:none;}.cls-6{fill:#8065c4;}.cls-7{stroke:#a1b7ff;}.cls-8{fill:#a1b7ff;}.cls-9{fill:#bfad88;}.cls-10{fill:#ffd578;}</style></defs><title>phone-imac</title><g id="phone-imac"><path class="cls-1" d="M5.14,11H58.86A3.14,3.14,0,0,1,62,14.14V43a0,0,0,0,1,0,0H2a0,0,0,0,1,0,0V14.14A3.14,3.14,0,0,1,5.14,11Z"/><path class="cls-2" d="M62,43H2L58.86,11A3.14,3.14,0,0,1,62,14.14Z"/><path class="cls-3" d="M2,43H62a0,0,0,0,1,0,0v4.86A3.14,3.14,0,0,1,58.86,51H5.14A3.14,3.14,0,0,1,2,47.86V43A0,0,0,0,1,2,43Z"/><circle class="cls-4" cx="28" cy="47" r="2"/><polygon class="cls-3" points="38 59 33 55 33 51 23 51 23 55 18 59 38 59"/><line class="cls-5" x1="10" y1="59" x2="54" y2="59"/><path class="cls-6" d="M35.14,5H58.86A3.14,3.14,0,0,1,62,8.14V54a0,0,0,0,1,0,0H32a0,0,0,0,1,0,0V8.14A3.14,3.14,0,0,1,35.14,5Z"/><path class="cls-3" d="M32,54H62a0,0,0,0,1,0,0v4.86A3.14,3.14,0,0,1,58.86,62H35.14A3.14,3.14,0,0,1,32,58.86V54A0,0,0,0,1,32,54Z"/><circle class="cls-4" cx="47" cy="58" r="2"/><line class="cls-7" x1="39" y1="9" x2="36" y2="12"/><line class="cls-7" x1="45" y1="9" x2="36.5" y2="17.5"/><path class="cls-8" d="M55.63,47H49.5V42h-5v5H38.87C36.46,47,34,48.68,34,50.74V54H60V50.32C60,48.48,57.77,47,55.63,47Z"/><path class="cls-9" d="M56,38.5l.5-6.1A7.18,7.18,0,0,0,49.56,25H44.44a7.18,7.18,0,0,0-6.94,7.4l.5,6.1"/><path class="cls-10" d="M43.68,33.94c-5,0-5.68-4.33-5.68.48v4a11.86,11.86,0,0,0,2.76,7A8.21,8.21,0,0,0,47,48a8.21,8.21,0,0,0,6.24-2.5,11.86,11.86,0,0,0,2.76-7v-4C56,29.61,48.65,33.94,43.68,33.94Z"/></g></svg>