<?xml version="1.0" encoding="UTF-8" standalone="no"?> <svg id="Layer_1" data-name="Layer 1" xmlns="http://www.w3.org/2000/svg" viewBox="0 0 120 120"><defs><style>.cls-1{fill:#f7cb14;}.cls-2{fill:#d3ae11;}.cls-3{fill:#1e0a09;}.cls-4{fill:#ef2e2e;}.cls-5{fill:#c92323;}</style></defs><title>chinese new year icon 11</title><polygon class="cls-1" points="60.14 14.94 54.52 14.94 50.55 18.91 50.55 24.52 54.52 28.5 60.14 28.5 64.11 24.52 64.11 18.91 60.14 14.94"/><polygon class="cls-2" points="54.52 14.94 50.55 18.91 50.55 21.72 64.11 21.72 64.11 18.91 60.14 14.94 54.52 14.94"/><path class="cls-3" d="M60.76,13.44H53.9l-4.85,4.85v6.86L53.9,30h2.43V96.15a1,1,0,0,0,2,0V30h2.43l4.85-4.84V18.29ZM62.61,23.9,59.52,27H55.14L52.05,23.9V19.53l3.09-3.09h4.38l3.09,3.09Z"/><rect class="cls-1" x="28.15" y="55.23" width="58.35" height="12" rx="4.31"/><rect class="cls-4" x="38.88" y="55.23" width="36.89" height="12"/><rect class="cls-1" x="52.99" y="56.9" width="8.67" height="8.67" rx="1.61" transform="translate(60.09 -22.6) rotate(45)"/><path class="cls-2" d="M82.19,55H32.47a4.33,4.33,0,0,0-4.32,4.32V61H86.5V59.33A4.33,4.33,0,0,0,82.19,55Z"/><rect class="cls-5" x="38.88" y="55.01" width="36.89" height="6"/><path class="cls-2" d="M56.19,56l-3.86,3.86A1.6,1.6,0,0,0,51.86,61H62.79a1.56,1.56,0,0,0-.47-1.13L58.46,56A1.6,1.6,0,0,0,56.19,56Z"/><rect class="cls-4" x="28.15" y="35.11" width="58.35" height="12" rx="4.31"/><path class="cls-5" d="M82.19,35.11H32.47a4.34,4.34,0,0,0-4.32,4.32v1.68H86.5V39.43A4.33,4.33,0,0,0,82.19,35.11Z"/><rect class="cls-4" x="38.88" y="35.11" width="36.89" height="12"/><rect class="cls-5" x="38.88" y="35.11" width="36.89" height="6"/><rect class="cls-1" x="52.99" y="36.78" width="8.67" height="8.67" rx="1.61" transform="translate(45.86 -28.5) rotate(45)"/><path class="cls-2" d="M56.19,36.12,52.33,40a1.6,1.6,0,0,0-.47,1.13H62.79A1.56,1.56,0,0,0,62.32,40l-3.86-3.86A1.6,1.6,0,0,0,56.19,36.12Z"/><path class="cls-3" d="M82.19,33.61H32.47a5.83,5.83,0,0,0-5.82,5.82V42.8a5.82,5.82,0,0,0,5.82,5.81H82.19A5.81,5.81,0,0,0,88,42.8V39.43A5.82,5.82,0,0,0,82.19,33.61ZM57.25,45.05l-3.86-3.86a.11.11,0,0,1,0-.15l3.86-3.86a.11.11,0,0,1,.15,0L61.26,41a.09.09,0,0,1,0,.15L57.4,45.05A.11.11,0,0,1,57.25,45.05Zm-24.78.56a2.82,2.82,0,0,1-2.82-2.81V39.43a2.83,2.83,0,0,1,2.82-2.82h4.91v9Zm7.91-9h13.2l-2.31,2.31a3.11,3.11,0,0,0,0,4.39l2.31,2.3H40.38Zm20.7,9,2.31-2.3a3.11,3.11,0,0,0,0-4.39l-2.31-2.31h13.2v9ZM85,42.8a2.81,2.81,0,0,1-2.81,2.81H77.28v-9h4.91A2.82,2.82,0,0,1,85,39.43Z"/><path class="cls-3" d="M82.19,53.73H32.47a5.83,5.83,0,0,0-5.82,5.82v3.37a5.82,5.82,0,0,0,5.82,5.81H82.19A5.81,5.81,0,0,0,88,62.92V59.55A5.82,5.82,0,0,0,82.19,53.73ZM57.25,65.16l-3.86-3.85a.12.12,0,0,1,0-.16l3.86-3.85a.09.09,0,0,1,.15,0l3.86,3.85a.1.1,0,0,1,0,.16L57.4,65.17A.1.1,0,0,1,57.25,65.16Zm-24.78.57a2.82,2.82,0,0,1-2.82-2.81V59.55a2.82,2.82,0,0,1,2.82-2.82h4.91v9Zm7.91-9h13.2L51.27,59a3.12,3.12,0,0,0,0,4.4l2.31,2.3H40.38Zm20.7,9,2.31-2.3a3.12,3.12,0,0,0,0-4.4l-2.31-2.3h13.2v9ZM85,62.92a2.81,2.81,0,0,1-2.81,2.81H77.28v-9h4.91A2.81,2.81,0,0,1,85,59.55Z"/><rect class="cls-3" x="55.2" y="100.93" width="4" height="7.6" rx="2" transform="translate(114.4 209.46) rotate(180)"/><rect class="cls-3" x="65.4" y="96.42" width="4" height="7.48" rx="2" transform="translate(188.13 99.02) rotate(123.4)"/><rect class="cls-3" x="45.26" y="96.42" width="4" height="7.48" rx="2" transform="translate(104.87 5.58) rotate(56.6)"/><rect class="cls-4" x="28.15" y="76.84" width="58.35" height="12" rx="4.31"/><path class="cls-5" d="M82.19,76.84H32.47a4.33,4.33,0,0,0-4.32,4.31v1.69H86.5V81.15A4.32,4.32,0,0,0,82.19,76.84Z"/><rect class="cls-4" x="38.88" y="76.84" width="36.89" height="12"/><rect class="cls-5" x="38.88" y="76.84" width="36.89" height="6"/><rect class="cls-1" x="52.99" y="78.5" width="8.67" height="8.67" rx="1.61" transform="translate(75.37 -16.27) rotate(45)"/><path class="cls-2" d="M56.19,77.84,52.33,81.7a1.64,1.64,0,0,0-.47,1.14H62.79a1.6,1.6,0,0,0-.47-1.14l-3.86-3.86A1.62,1.62,0,0,0,56.19,77.84Z"/><path class="cls-3" d="M82.19,75.34H32.47a5.82,5.82,0,0,0-5.82,5.81v3.37a5.83,5.83,0,0,0,5.82,5.82H82.19A5.82,5.82,0,0,0,88,84.52V81.15A5.81,5.81,0,0,0,82.19,75.34ZM57.25,86.77l-3.86-3.86a.11.11,0,0,1,0-.15l3.86-3.85a.1.1,0,0,1,.15,0l3.86,3.86a.09.09,0,0,1,0,.15L57.4,86.77A.09.09,0,0,1,57.25,86.77Zm-24.78.57a2.82,2.82,0,0,1-2.82-2.82V81.15a2.82,2.82,0,0,1,2.82-2.81h4.91v9Zm7.91-9h13.2l-2.31,2.3a3.12,3.12,0,0,0,0,4.4l2.31,2.3H40.38Zm20.7,9L63.39,85a3.12,3.12,0,0,0,0-4.4l-2.31-2.3h13.2v9ZM85,84.52a2.81,2.81,0,0,1-2.81,2.82H77.28v-9h4.91A2.81,2.81,0,0,1,85,81.15Z"/></svg>